<?xml version="1.0" encoding="UTF-8" standalone="no"?>
<svg
        version="1.1"
        x="0px"
        y="0px"
        viewBox="0 0 40.000001 40"
        enable-background="new 0 0 205.9 215"
        xml:space="preserve"
        id="svg1"
        sodipodi:docname="GREYCAT-HEAD-Grey.svg"
        inkscape:export-filename="GREYCAT-HEAD-Grey.svg"
        inkscape:export-xdpi="17.860466"
        inkscape:export-ydpi="17.860466"
        inkscape:version="1.4 (e7c3feb1, 2024-10-09)"
        width="40"
        height="40"
        xmlns:inkscape="http://www.inkscape.org/namespaces/inkscape"
        xmlns:sodipodi="http://sodipodi.sourceforge.net/DTD/sodipodi-0.dtd"
        xmlns="http://www.w3.org/2000/svg"
        xmlns:svg="http://www.w3.org/2000/svg"><defs
   id="defs1" /><sodipodi:namedview
        id="namedview1"
        pagecolor="#ffffff"
        bordercolor="#000000"
        borderopacity="0.25"
        inkscape:showpageshadow="2"
        inkscape:pageopacity="0.0"
        inkscape:pagecheckerboard="0"
        inkscape:deskcolor="#d1d1d1"
        inkscape:zoom="4.69"
        inkscape:cx="103.09168"
        inkscape:cy="107.46269"
        inkscape:window-width="2560"
        inkscape:window-height="1387"
        inkscape:window-x="1512"
        inkscape:window-y="25"
        inkscape:window-maximized="1"
        inkscape:current-layer="svg1"
        inkscape:export-bgcolor="#ffffff00"><inkscape:page
     x="0"
     y="0"
     width="40"
     height="40"
     id="page2"
     margin="0"
     bleed="0" /></sodipodi:namedview>

    <g
            id="Calque_2"
            transform="matrix(0.17910448,0,0,0.16925247,1.5522388,1.8307476)">
	<path
            fill="#77777a"
            d="m 203.5,110.7 c 0,-0.1 0,-0.1 0,-0.2 0,-0.1 0,-0.2 0,-0.3 0,0 0,-0.1 0,-0.1 L 191.7,64.9 203.4,31.4 c 0.1,-0.2 0.1,-0.5 0.1,-0.7 0,-0.1 0,-0.1 0,-0.1 0,-0.3 0,-0.5 -0.1,-0.8 0,0 0,0 0,0 L 195.2,3.1 c 0,0 0,-0.1 0,-0.1 0,-0.1 -0.1,-0.2 -0.1,-0.3 0,-0.1 -0.1,-0.1 -0.1,-0.2 0,-0.1 -0.1,-0.1 -0.1,-0.2 -0.1,-0.2 -0.2,-0.3 -0.4,-0.4 0,0 0,-0.1 -0.1,-0.1 -0.2,-0.1 -0.3,-0.3 -0.5,-0.4 -0.1,0 -0.1,0 -0.2,-0.1 -0.2,-0.1 -0.3,-0.1 -0.5,-0.2 0,0 -0.1,0 -0.1,0 0,0 0,0 -0.1,0 -0.2,0 -0.4,0 -0.6,0 -0.1,0 -0.1,0 -0.2,0 -0.2,0 -0.3,0.1 -0.5,0.1 -0.1,0 -0.1,0.1 -0.2,0.1 0,0 -0.1,0 -0.1,0.1 L 174,10 c -0.2,0.1 -0.3,0.2 -0.5,0.3 L 130.6,43.7 H 103.1 102.8 75.3 L 32.4,10.3 C 32.3,10.2 32.1,10.1 31.9,10 L 14.6,1.3 c -0.1,0 -0.1,0 -0.2,-0.1 -0.1,0 -0.1,0 -0.2,-0.1 C 14,1 13.8,1 13.7,1 c 0,0 -0.1,0 -0.1,0 -0.2,0 -0.4,0 -0.7,0 0,0 0,0 -0.1,0 0,0 -0.1,0 -0.1,0 -0.2,0 -0.3,0.1 -0.5,0.2 0,0 -0.1,0 -0.1,0.1 -0.2,0.1 -0.4,0.2 -0.5,0.4 0,0 0,0 -0.1,0.1 -0.1,0.1 -0.3,0.3 -0.4,0.4 0,0.1 -0.1,0.1 -0.1,0.2 0,0 0,0.1 0,0.1 -0.1,0.1 -0.1,0.2 -0.1,0.3 0,0 0,0.1 0,0.1 L 2.6,29.7 c 0,0 0,0 0,0 -0.1,0.3 -0.1,0.5 -0.1,0.8 0,0.1 0,0.1 0,0.1 0,0.2 0.1,0.5 0.1,0.7 L 14.3,64.8 2.5,110 c 0,0 0,0.1 0,0.1 0,0.1 0,0.2 0,0.3 0,0.1 0,0.1 0,0.2 0,0.1 0,0.2 0,0.3 0,0.1 0,0.1 0,0.2 v 0 c 0,0 9.4,43.1 10,46 0.3,1.3 0.9,4.1 50.1,32.8 l 13.7,16.6 c 0.4,0.4 0.9,0.8 1.4,0.9 l 24,6.1 c 0.3,0.1 0.7,0.2 1,0.2 0,0 0.1,0 0.1,0 0,0 0.1,0 0.1,0 0.4,0 0.7,-0.1 1,-0.2 l 24,-6.1 c 0.6,-0.1 1.1,-0.5 1.4,-0.9 L 143,189.9 c 49.2,-28.8 49.9,-31.5 50.1,-32.8 0.7,-2.9 10,-46 10,-46 v 0 c 0,-0.1 0,-0.1 0,-0.2 0.4,0.1 0.4,0 0.4,-0.2 z m -84.6,63.1 17.2,13.6 -16.9,6.8 L 107,186 Z m 13.7,-46.7 10.1,-10.1 12.7,-0.8 -9.4,15.6 -15.4,3 z m -3.5,13.5 19.1,-3.7 c 0.8,-0.1 1.4,-0.6 1.8,-1.3 l 12,-19.8 34.4,-2.1 -15.4,31.6 -41.4,22.1 h -17.3 z m 31.1,-30.1 c 0,0 0,0 0,0 l -18.9,1.1 c -0.7,0 -1.3,0.3 -1.8,0.8 l -4.2,4.3 13.4,-51.7 38,2.3 10.7,40.9 z M 186.9,61.9 155.7,60 195.8,36.5 Z m -29.3,-9.3 33.9,-43.2 6.1,19.7 z M 72.7,48.5 c 0.5,0.4 1.1,0.6 1.7,0.6 h 28.4 0.3 28.4 c 0.6,0 1.2,-0.2 1.7,-0.6 l 43.4,-33.8 6.3,-3.2 -38.4,48.9 c 0,0 0,0 0,0 -0.1,0.1 -0.2,0.3 -0.3,0.5 0,0 0,0 0,0.1 0,0.1 -0.1,0.2 -0.1,0.2 0,0 0,0.1 0,0.1 0,0 0,0.1 0,0.1 0,0 0,0 0,0 L 116.3,168.7 103,182.5 89.8,168.8 61.9,61.5 c 0,0 0,0 0,0 0,0 0,-0.1 0,-0.1 0,0 0,-0.1 0,-0.1 0,-0.1 0,-0.1 -0.1,-0.2 0,0 0,-0.1 0,-0.1 -0.1,-0.2 -0.2,-0.3 -0.3,-0.5 0,0 0,0 0,0 L 23,11.6 l 6.3,3.2 z m 2.6,86.3 -15.4,-3 -9.4,-15.6 12.7,0.8 10.1,10.1 z m -31.3,-19 12,19.8 c 0.4,0.7 1,1.1 1.8,1.3 l 19.1,3.7 7,26.9 H 66.4 L 25,145.4 9.6,113.7 Z m 43,58 11.9,12.2 -12.2,8.2 -16.9,-6.8 z M 19,61.9 10.1,36.5 50.2,60 Z M 14.4,9.5 48.3,52.7 8.3,29.3 Z m 4.9,57.8 38,-2.3 13.4,51.7 -4.2,-4.3 c -0.5,-0.5 -1.1,-0.8 -1.8,-0.8 l -18.9,-1.1 c 0,0 0,0 0,0 L 8.7,108.3 Z m -6.7,64.8 8,16.4 c 0.2,0.5 0.7,0.9 1.2,1.2 l 42.8,22.9 c 0.4,0.2 0.8,0.3 1.3,0.3 h 13.7 l -15.2,12 C 43.6,172.7 21,158.8 17.9,155.7 17.1,152.9 14.8,142.3 12.6,132.1 Z m 113.3,70.5 -23,5.8 -23,-5.8 -6.6,-8 12.6,5.1 c 0.3,0.1 0.7,0.2 1,0.2 0.5,0 1.1,-0.2 1.5,-0.5 l 14.5,-9.7 14.5,9.7 c 0.5,0.3 1,0.5 1.5,0.5 0.3,0 0.7,-0.1 1,-0.2 l 12.6,-5.1 z m 62.3,-47 c -3.1,3.1 -25.7,17 -46.5,29.2 l -15.2,-12 h 13.7 c 0.4,0 0.9,-0.1 1.3,-0.3 l 42.8,-22.9 c 0.5,-0.3 0.9,-0.7 1.2,-1.2 l 8,-16.4 c -2.4,10.3 -4.7,20.9 -5.3,23.6 z"
            id="path1" />
</g>
</svg>
